<svg version="1.1" xmlns="http://www.w3.org/2000/svg" xmlns:xlink="http://www.w3.org/1999/xlink" width="59.42857" height="48.28571" viewBox="0,0,59.42857,48.28571"><g transform="translate(-210.28571,-155.85714)"><g data-paper-data="{&quot;isPaintingLayer&quot;:true}" fill-rule="nonzero" stroke="none" stroke-width="0" stroke-linecap="butt" stroke-linejoin="miter" stroke-miterlimit="10" stroke-dasharray="" stroke-dashoffset="0" style="mix-blend-mode: normal"><path d="M210.28572,204.14286v-48.28571h59.42857v48.28571z" fill="#bfbfbf"/><path d="M255.88674,173.5234c0,3.15591 -2.46243,5.71428 -5.5,5.71428c-3.03757,0 -5.5,-2.55837 -5.5,-5.71428c0,-3.15591 2.46243,-5.71429 5.5,-5.71429c3.03757,0 5.5,2.55837 5.5,5.71429z" fill="#ffad00"/><path d="M231.45451,174.23768c0,3.15591 -2.46243,5.71428 -5.5,5.71428c-3.03757,0 -5.5,-2.55837 -5.5,-5.71428c0,-3.15591 2.46243,-5.71429 5.5,-5.71429c3.03757,0 5.5,2.55837 5.5,5.71429z" fill="#ffad00"/><path d="M251.02639,172.80911c0,3.15591 -2.46243,5.71428 -5.5,5.71428c-3.03757,0 -5.5,-2.55837 -5.5,-5.71428c0,-3.15591 2.46243,-5.71429 5.5,-5.71429c3.03757,0 5.5,2.55837 5.5,5.71429z" fill="#ffad00"/><path d="M245.16925,173.38054c0,3.15591 -2.46243,5.71428 -5.5,5.71428c-3.03757,0 -5.5,-2.55837 -5.5,-5.71428c0,-3.15591 2.46243,-5.71429 5.5,-5.71429c3.03757,0 5.5,2.55837 5.5,5.71429z" fill="#ffad00"/><path d="M237.45496,173.52339c0,3.15591 -2.46243,5.71429 -5.5,5.71429c-3.03757,0 -5.5,-2.55837 -5.5,-5.71429c0,-3.15591 2.46243,-5.71429 5.5,-5.71429c3.03757,0 5.5,2.55837 5.5,5.71429z" fill="#ffad00"/><path d="M261.88308,188.52339c0,0.84257 0.0298,2.4572 -0.68836,2.89926c-3.18226,1.95881 -13.6357,1.2436 -22.45449,1.2436c-9.43323,0 -18.42982,1.1049 -20.53081,-1.43736c-0.30641,-0.37077 0.24509,-1.69449 0.24509,-2.27693c0,-2.38335 -1.00075,-10.10079 2.98994,-12.0209c3.67151,-1.76653 11.54498,-1.26481 16.72434,-1.26481c4.44841,0 12.58367,-1.17813 16.5826,0.10811c5.7179,1.83913 7.13168,10.05623 7.13168,12.74903z" fill="#a1e6ff"/></g></g></svg>