<svg version="1.1" xmlns="http://www.w3.org/2000/svg" xmlns:xlink="http://www.w3.org/1999/xlink" width="43.76652" height="25.81035" viewBox="0,0,43.76652,25.81035"><g transform="translate(-218.11674,-167.09483)"><g data-paper-data="{&quot;isPaintingLayer&quot;:true}" fill-rule="nonzero" stroke="none" stroke-width="0" stroke-linecap="butt" stroke-linejoin="miter" stroke-miterlimit="10" stroke-dasharray="" stroke-dashoffset="0" style="mix-blend-mode: normal"><path d="M257.02594,173.5234c0,3.15591 -2.46243,5.71428 -5.5,5.71428c-3.03757,0 -5.5,-2.55837 -5.5,-5.71428c0,-3.15591 2.46243,-5.71429 5.5,-5.71429c3.03757,0 5.5,2.55837 5.5,5.71429z" fill="#ffad00"/><path d="M231.45451,174.23768c0,3.15591 -2.46243,5.71428 -5.5,5.71428c-3.03757,0 -5.5,-2.55837 -5.5,-5.71428c0,-3.15591 2.46243,-5.71428 5.5,-5.71428c3.03757,0 5.5,2.55837 5.5,5.71428z" fill="#ffad00"/><path d="M251.1688,172.80911c0,3.15591 -2.46243,5.71429 -5.5,5.71429c-3.03757,0 -5.5,-2.55837 -5.5,-5.71429c0,-3.15591 2.46243,-5.71428 5.5,-5.71428c3.03757,0 5.5,2.55837 5.5,5.71428z" fill="#ffad00"/><path d="M245.31165,173.38054c0,3.15591 -2.46243,5.71428 -5.5,5.71428c-3.03757,0 -5.5,-2.55837 -5.5,-5.71428c0,-3.15591 2.46243,-5.71429 5.5,-5.71429c3.03757,0 5.5,2.55837 5.5,5.71429z" fill="#ffad00"/><path d="M237.59737,173.5234c0,3.15591 -2.46243,5.71428 -5.5,5.71428c-3.03757,0 -5.5,-2.55837 -5.5,-5.71428c0,-3.15591 2.46243,-5.71429 5.5,-5.71429c3.03757,0 5.5,2.55837 5.5,5.71429z" fill="#ffad00"/><path d="M261.88308,188.5234c0,0.84257 0.02981,2.45719 -0.68836,2.89925c-3.18225,1.95881 -13.6357,1.2436 -22.4545,1.2436c-9.43323,0 -18.42982,1.1049 -20.5308,-1.43735c-0.30641,-0.37077 0.24509,-1.69449 0.24509,-2.27693c0,-2.38335 -1.00075,-10.1008 2.98995,-12.0209c3.67151,-1.76654 11.54498,-1.26481 16.72434,-1.26481c4.44842,0 12.58367,-1.17812 16.58261,0.10811c5.7179,1.83913 7.13168,10.05623 7.13168,12.74903z" fill="#a1e6ff"/></g></g></svg>