<svg version="1.1" xmlns="http://www.w3.org/2000/svg" xmlns:xlink="http://www.w3.org/1999/xlink" width="45.6" height="56.39984" viewBox="0,0,45.6,56.39984"><g transform="translate(-209.7,-144.60017)"><g data-paper-data="{&quot;isPaintingLayer&quot;:true}" fill-rule="nonzero" stroke-linejoin="miter" stroke-miterlimit="10" stroke-dasharray="" stroke-dashoffset="0" style="mix-blend-mode: normal"><path d="M255.3,197.4c0,1.98823 -10.20791,3.6 -22.8,3.6c-12.59209,0 -22.8,-1.61177 -22.8,-3.6c0,-1.98823 10.20791,-3.6 22.8,-3.6c12.59209,0 22.8,1.61177 22.8,3.6z" fill="#ffaa00" stroke="none" stroke-width="0" stroke-linecap="butt"/><path d="M219.9,181.3c0,-1.67198 0.32517,-3.9034 -0.00604,-6.09909c-0.43795,-2.90334 -1.22477,-5.54419 0.2694,-6.9465c1.15313,-1.08224 3.85419,0.01111 6.33297,0.19509c2.71206,0.20129 5.03687,-0.6495 6.90367,-0.6495c1.72668,0 4.26413,0.83767 6.5189,0.6914c2.61332,-0.16953 4.91556,-1.24882 6.22704,0.06266c1.04326,1.04326 0.73301,2.84003 0.72255,4.84682c-0.01403,2.69254 0.03151,5.76316 0.03151,7.89912c0,7.45584 -6.04416,13.5 -13.5,13.5c-7.45584,0 -13.5,-6.04416 -13.5,-13.5z" fill="#66ffaa" stroke="#000000" stroke-width="2" stroke-linecap="butt"/><path d="M253.1,192.7c0,4.47351 -2.43858,5.1 -5.2,5.1c-2.10246,0 -6.45841,-1.59504 -6.69947,-3.85343c-0.07555,-0.70783 2.89947,-0.77906 2.89947,-1.84657c0,-4.47351 1.23858,-7.5 4,-7.5c2.76142,0 5,3.62649 5,8.1z" fill="#66ffaa" stroke="#000000" stroke-width="2" stroke-linecap="butt"/><path d="M218.1,184.8c2.76143,0 5,2.6265 5,7.1c0,2.0925 1.90404,1.03082 1.51929,1.86267c-0.4378,0.94654 -4.84953,4.23733 -6.31929,4.23733c-2.76143,0 -5.2,-0.6265 -5.2,-5.1c0,-4.4735 2.23857,-8.1 5,-8.1z" data-paper-data="{&quot;index&quot;:null}" fill="#66ffaa" stroke="#000000" stroke-width="2" stroke-linecap="butt"/><path d="M221.9,171.7c0,-0.82843 0.67157,-1.5 1.5,-1.5c0.82843,0 1.5,0.67157 1.5,1.5c0,0.82843 -0.67157,1.5 -1.5,1.5c-0.82843,0 -1.5,-0.67157 -1.5,-1.5z" fill="#ffffff" stroke="#ffffff" stroke-width="2" stroke-linecap="butt"/><path d="M241.7,172.3c0,-0.82843 0.67157,-1.5 1.5,-1.5c0.82843,0 1.5,0.67157 1.5,1.5c0,0.82843 -0.67157,1.5 -1.5,1.5c-0.82843,0 -1.5,-0.67157 -1.5,-1.5z" fill="#ffffff" stroke="#ffffff" stroke-width="2" stroke-linecap="butt"/><path d="M222.3,171.6c0,-0.55228 0.44772,-1 1,-1c0.55228,0 1,0.44772 1,1c0,0.55228 -0.44772,1 -1,1c-0.55228,0 -1,-0.44772 -1,-1z" fill="#000000" stroke="none" stroke-width="0.5" stroke-linecap="butt"/><path d="M242.1,171.8c0,-0.55228 0.44772,-1 1,-1c0.55228,0 1,0.44772 1,1c0,0.55228 -0.44772,1 -1,1c-0.55228,0 -1,-0.44772 -1,-1z" fill="#000000" stroke="none" stroke-width="0.5" stroke-linecap="butt"/><path d="M230.1,182.5c0,-1.82254 1.47746,1.76 3.3,1.76c1.82254,0 3.3,-3.58254 3.3,-1.76c0,1.82254 -1.47746,3.3 -3.3,3.3c-1.82254,0 -3.3,-1.47746 -3.3,-3.3z" fill="#000000" stroke="none" stroke-width="0" stroke-linecap="butt"/><path d="M230.5,195.6c0,3.42417 -1.11929,3.8 -2.5,3.8c-1.38071,0 -2.5,-0.37583 -2.5,-3.8c0,-3.42417 1.11929,-6.2 2.5,-6.2c1.38071,0 2.5,2.77583 2.5,6.2z" fill="#66ffaa" stroke="#000000" stroke-width="1" stroke-linecap="butt"/><path d="M240.1,195.6c0,3.42416 -1.11929,3.8 -2.5,3.8c-1.38071,0 -2.5,-0.37583 -2.5,-3.8c0,-3.42416 1.11929,-6.2 2.5,-6.2c1.38071,0 2.5,2.77584 2.5,6.2z" fill="#66ffaa" stroke="#000000" stroke-width="1" stroke-linecap="butt"/><path d="M222.5,182.2l2,3.6" fill="none" stroke="#ff3f96" stroke-width="2" stroke-linecap="round"/><path d="M225.5,180.6l2.6,5" fill="none" stroke="#ff3f96" stroke-width="2" stroke-linecap="round"/><path d="M237.5,179.4l2.2,5.2" fill="none" stroke="#ff3f96" stroke-width="2" stroke-linecap="round"/><path d="M243.1,182.8l-1.2,-3.4" fill="none" stroke="#ff3f96" stroke-width="2" stroke-linecap="round"/><path d="M232.98,164.07438l-5.98823,-7.3771l10.57645,-0.21113z" fill="#a30000" stroke="none" stroke-width="0" stroke-linecap="butt"/><text transform="translate(228.18,153.43615) scale(0.17497,0.17497)" font-size="40" xml:space="preserve" fill="#a30000" fill-rule="nonzero" stroke="none" stroke-width="1" stroke-linecap="butt" stroke-linejoin="miter" stroke-miterlimit="10" stroke-dasharray="" stroke-dashoffset="0" font-family="Pixel" font-weight="normal" text-anchor="start" style="mix-blend-mode: normal"><tspan x="0" dy="0">P1</tspan></text></g></g></svg>