<svg version="1.1" xmlns="http://www.w3.org/2000/svg" xmlns:xlink="http://www.w3.org/1999/xlink" width="42" height="33.1" viewBox="0,0,42,33.1"><g transform="translate(-212.1,-166.8)"><g data-paper-data="{&quot;isPaintingLayer&quot;:true}" fill-rule="nonzero" stroke-linejoin="miter" stroke-miterlimit="10" stroke-dasharray="" stroke-dashoffset="0" style="mix-blend-mode: normal"><path d="M219.9,181.3c0,-1.67198 0.32517,-3.9034 -0.00604,-6.09909c-0.43795,-2.90334 -1.22477,-5.54419 0.2694,-6.9465c1.15313,-1.08224 3.85419,0.01111 6.33297,0.19509c2.71206,0.20129 5.03687,-0.6495 6.90367,-0.6495c1.72668,0 4.26413,0.83767 6.5189,0.6914c2.61332,-0.16953 4.91556,-1.24882 6.22704,0.06266c1.04326,1.04326 0.73301,2.84003 0.72255,4.84682c-0.01403,2.69254 0.03151,5.76316 0.03151,7.89912c0,7.45584 -6.04416,13.5 -13.5,13.5c-7.45584,0 -13.5,-6.04416 -13.5,-13.5z" fill="#30ff29" stroke="#000000" stroke-width="2" stroke-linecap="butt"/><path d="M253.1,192.7c0,4.47351 -2.43858,5.1 -5.2,5.1c-2.10246,0 -6.45841,-1.59504 -6.69947,-3.85343c-0.07555,-0.70783 2.89947,-0.77907 2.89947,-1.84658c0,-4.47351 1.23858,-7.5 4,-7.5c2.76142,0 5,3.62649 5,8.1z" fill="#30ff29" stroke="#000000" stroke-width="2" stroke-linecap="butt"/><path d="M218.1,184.8c2.76143,0 5,2.6265 5,7.1c0,2.0925 1.90404,1.03082 1.51929,1.86267c-0.4378,0.94654 -4.84953,4.23733 -6.31929,4.23733c-2.76143,0 -5.2,-0.6265 -5.2,-5.1c0,-4.4735 2.23857,-8.1 5,-8.1z" data-paper-data="{&quot;index&quot;:null}" fill="#30ff29" stroke="#000000" stroke-width="2" stroke-linecap="butt"/><path d="M221.9,171.7c0,-0.82843 0.67157,-1.5 1.5,-1.5c0.82843,0 1.5,0.67157 1.5,1.5c0,0.82843 -0.67157,1.5 -1.5,1.5c-0.82843,0 -1.5,-0.67157 -1.5,-1.5z" fill="#ffffff" stroke="#ffffff" stroke-width="2" stroke-linecap="butt"/><path d="M241.7,172.3c0,-0.82843 0.67157,-1.5 1.5,-1.5c0.82843,0 1.5,0.67157 1.5,1.5c0,0.82843 -0.67157,1.5 -1.5,1.5c-0.82843,0 -1.5,-0.67157 -1.5,-1.5z" fill="#ffffff" stroke="#ffffff" stroke-width="2" stroke-linecap="butt"/><path d="M222.3,171.6c0,-0.55228 0.44772,-1 1,-1c0.55228,0 1,0.44772 1,1c0,0.55228 -0.44772,1 -1,1c-0.55228,0 -1,-0.44772 -1,-1z" fill="#000000" stroke="none" stroke-width="0.5" stroke-linecap="butt"/><path d="M242.1,171.8c0,-0.55228 0.44772,-1 1,-1c0.55228,0 1,0.44772 1,1c0,0.55228 -0.44772,1 -1,1c-0.55228,0 -1,-0.44772 -1,-1z" fill="#000000" stroke="none" stroke-width="0.5" stroke-linecap="butt"/><path d="M230.1,182.5c0,-1.82254 1.47746,1.76 3.3,1.76c1.82254,0 3.3,-3.58254 3.3,-1.76c0,1.82254 -1.47746,3.3 -3.3,3.3c-1.82254,0 -3.3,-1.47746 -3.3,-3.3z" fill="#000000" stroke="none" stroke-width="0" stroke-linecap="butt"/><path d="M224.5,185.8l-2,-3.6" fill="none" stroke="#ff3f96" stroke-width="2" stroke-linecap="round"/><path d="M239.7,184.6l-2.2,-5.2" fill="none" stroke="#ff3f96" stroke-width="2" stroke-linecap="round"/><path d="M241.9,179.4l1.2,3.4" fill="none" stroke="#ff3f96" stroke-width="2" stroke-linecap="round"/><path d="M232.3,173.6c0,0.88366 -0.49249,1.6 -1.1,1.6c-0.60751,0 -1.1,-0.71634 -1.1,-1.6c0,-0.88366 0.49249,-1.6 1.1,-1.6c0.60751,0 1.1,0.71634 1.1,1.6z" fill="#188115" stroke="none" stroke-width="0" stroke-linecap="butt"/><path d="M235.7,170.8c0,0.66274 -0.35817,1.2 -0.8,1.2c-0.44183,0 -0.8,-0.53726 -0.8,-1.2c0,-0.66274 0.35817,-1.2 0.8,-1.2c0.44183,0 0.8,0.53726 0.8,1.2z" fill="#188115" stroke="none" stroke-width="0" stroke-linecap="butt"/><path d="M235.9,175.9c0,0.82843 -0.3134,1.5 -0.7,1.5c-0.3866,0 -0.7,-0.67157 -0.7,-1.5c0,-0.82843 0.3134,-1.5 0.7,-1.5c0.3866,0 0.7,0.67157 0.7,1.5z" fill="#188115" stroke="none" stroke-width="0" stroke-linecap="butt"/><path d="M231.7,170.7c0,0.3866 -0.76112,0.7 -1.7,0.7c-0.93888,0 -1.7,-0.3134 -1.7,-0.7c0,-0.3866 0.76112,-0.7 1.7,-0.7c0.93888,0 1.7,0.3134 1.7,0.7z" fill="#188115" stroke="none" stroke-width="0" stroke-linecap="butt"/><path d="M232.9,177.8c0,0.7732 -0.3134,1.4 -0.7,1.4c-0.3866,0 -0.7,-0.6268 -0.7,-1.4c0,-0.7732 0.3134,-1.4 0.7,-1.4c0.3866,0 0.7,0.6268 0.7,1.4z" fill="#188115" stroke="none" stroke-width="0" stroke-linecap="butt"/><path d="M239.3,171.1c0,0.49706 -0.49249,0.9 -1.1,0.9c-0.60751,0 -1.1,-0.40294 -1.1,-0.9c0,-0.49706 0.49249,-0.9 1.1,-0.9c0.60751,0 1.1,0.40294 1.1,0.9z" fill="#188115" stroke="none" stroke-width="0" stroke-linecap="butt"/><path d="M248.5,186.9c0,0.3866 -0.3134,0.7 -0.7,0.7c-0.3866,0 -0.7,-0.3134 -0.7,-0.7c0,-0.3866 0.3134,-0.7 0.7,-0.7c0.3866,0 0.7,0.3134 0.7,0.7z" fill="#188115" stroke="none" stroke-width="0" stroke-linecap="butt"/><path d="M250.5,188.5c0,0.49706 -0.26863,0.9 -0.6,0.9c-0.33137,0 -0.6,-0.40294 -0.6,-0.9c0,-0.49706 0.26863,-0.9 0.6,-0.9c0.33137,0 0.6,0.40294 0.6,0.9z" fill="#188115" stroke="none" stroke-width="0" stroke-linecap="butt"/><path d="M251.3,191.4c0,0.7732 -0.22386,1.4 -0.5,1.4c-0.27614,0 -0.5,-0.6268 -0.5,-1.4c0,-0.7732 0.22386,-1.4 0.5,-1.4c0.27614,0 0.5,0.6268 0.5,1.4z" fill="#188115" stroke="none" stroke-width="0" stroke-linecap="butt"/><path d="M218.9,186.7c0,0.3866 -0.22386,0.7 -0.5,0.7c-0.27614,0 -0.5,-0.3134 -0.5,-0.7c0,-0.3866 0.22386,-0.7 0.5,-0.7c0.27614,0 0.5,0.3134 0.5,0.7z" fill="#188115" stroke="none" stroke-width="0" stroke-linecap="butt"/><path d="M217.5,188.1c0,0.60751 -0.17909,1.1 -0.4,1.1c-0.22091,0 -0.4,-0.49249 -0.4,-1.1c0,-0.60751 0.17909,-1.1 0.4,-1.1c0.22091,0 0.4,0.49249 0.4,1.1z" fill="#188115" stroke="none" stroke-width="0" stroke-linecap="butt"/><path d="M215.3,189c0.22091,0 0.4,0.58203 0.4,1.3c0,0.71797 -0.17909,1.3 -0.4,1.3c-0.22091,0 -0.4,-0.58203 -0.4,-1.3c0,-0.71797 0.17909,-1.3 0.4,-1.3z" fill="#188115" stroke="none" stroke-width="0" stroke-linecap="butt"/><path d="M227.5,171.2c0,0.55228 -0.3134,1 -0.7,1c-0.3866,0 -0.7,-0.44772 -0.7,-1c0,-0.55228 0.3134,-1 0.7,-1c0.3866,0 0.7,0.44772 0.7,1z" fill="#188115" stroke="none" stroke-width="0" stroke-linecap="butt"/><path d="M242.7,188.5c0,2.7062 -7.10426,5.5 -9.7,5.5c-2.59574,0 -9.1,-2.9938 -9.1,-5.7c0,-1.27826 1.2958,-1.10674 3.14788,-1.41408c2.06894,-0.34333 4.78247,-1.08592 6.15212,-1.08592c2.59574,0 9.5,-0.0062 9.5,2.7z" fill="#188115" stroke="none" stroke-width="0" stroke-linecap="butt"/><path d="M240.1,195.6c0,3.42416 -1.11929,3.8 -2.5,3.8c-1.38071,0 -2.5,-0.37583 -2.5,-3.8c0,-3.42416 1.11929,-6.2 2.5,-6.2c1.38071,0 2.5,2.77584 2.5,6.2z" fill="#30ff29" stroke="#000000" stroke-width="1" stroke-linecap="butt"/><path d="M230.5,195.6c0,3.42417 -1.11929,3.8 -2.5,3.8c-1.38071,0 -2.5,-0.37583 -2.5,-3.8c0,-3.42417 1.11929,-6.2 2.5,-6.2c1.38071,0 2.5,2.77583 2.5,6.2z" fill="#30ff29" stroke="#000000" stroke-width="1" stroke-linecap="butt"/><path d="M225.5,180.6l2.6,5" fill="none" stroke="#ff3f96" stroke-width="2" stroke-linecap="round"/></g></g></svg>